<svg xmlns="http://www.w3.org/2000/svg" version="1.1" xmlns:xlink="http://www.w3.org/1999/xlink" xmlns:svgjs="http://svgjs.dev/svgjs" width="1452" height="700" preserveAspectRatio="none" viewBox="0 0 1452 700"><g mask="url(&quot;#SvgjsMask1219&quot;)" fill="none"><rect width="1452" height="700" x="0" y="0" fill="rgba(6, 6, 6, 1)"></rect><path d="M18 700L718 0L1250.5 0L550.5 700z" fill="url(&quot;#SvgjsLinearGradient1220&quot;)"></path><path d="M499.16 700L1199.16 0L1313.16 0L613.1600000000001 700z" fill="url(&quot;#SvgjsLinearGradient1220&quot;)"></path><path d="M1371 700L671 0L492.5 0L1192.5 700z" fill="url(&quot;#SvgjsLinearGradient1221&quot;)"></path><path d="M951.8399999999999 700L251.83999999999992 0L-88.66000000000008 0L611.3399999999999 700z" fill="url(&quot;#SvgjsLinearGradient1221&quot;)"></path><path d="M1086.1362213766397 700L1452 334.1362213766396L1452 700z" fill="url(&quot;#SvgjsLinearGradient1220&quot;)"></path><path d="M0 700L365.8637786233604 700L 0 334.1362213766396z" fill="url(&quot;#SvgjsLinearGradient1221&quot;)"></path></g><defs><mask id="SvgjsMask1219"><rect width="1452" height="700" fill="#ffffff"></rect></mask><linearGradient x1="0%" y1="100%" x2="100%" y2="0%" id="SvgjsLinearGradient1220"><stop stop-color="rgba(83, 10, 32, 1)" offset="0"></stop><stop stop-opacity="0" stop-color="rgba(83, 10, 32, 1)" offset="0.66"></stop></linearGradient><linearGradient x1="100%" y1="100%" x2="0%" y2="0%" id="SvgjsLinearGradient1221"><stop stop-color="rgba(83, 10, 32, 1)" offset="0"></stop><stop stop-opacity="0" stop-color="rgba(83, 10, 32, 1)" offset="0.66"></stop></linearGradient></defs></svg>